:version 1.10
:name BioSkeleton
:units
   mass 1.0
   length 1.0
   angle deg
:documentation
   Data translated and provided by
   BioVision Motion Capture Studios
:root
   axis XYZ
   order TX TY TZ RZ RY RX
   position 0.0 0.0 0.0
   orientation 0.0 0.0 0.0
:bonedata
begin
   id 1
   name hips
   direction 0.000000 1.000000 0.000000
   length 0.000000
   axis 0.00000 0.00000 0.00000 XYZ
   dof rx ry rz
   limits (-180.0 180.0)
      (-180.0 180.0)
      (-180.0 180.0)
end
begin
   id 2
   name hips1
   direction 0.000000 1.000000 0.000000
   length  4.310000
   axis 0.000 0.000 0.000 XYZ
end
begin
   id 3
   name chest
   direction 0.000000 1.000000 0.000000
   length 0.000000
   axis 0.00000 0.00000 0.00000 XYZ
   dof rx ry rz
   limits (-180.0 180.0)
      (-180.0 180.0)
      (-180.0 180.0)
end
begin
   id 4
   name chest1
   direction 0.000000 1.000000 0.000000
   length  16.870001
   axis 0.000 0.000 0.000 XYZ
end
begin
   id 5
   name neck
   direction 0.000000 1.000000 0.000000
   length 4.020000
   axis 0.00000 0.00000 0.00000 XYZ
   dof rx ry rz
   limits (-180.0 180.0)
      (-180.0 180.0)
      (-180.0 180.0)
end
begin
   id 6
   name head
   direction 1.000000 0.000000 0.000000
   length 0.000000
   axis 0.00000 0.00000 0.00000 XYZ
   dof rx ry rz
   limits (-180.0 180.0)
      (-180.0 180.0)
      (-180.0 180.0)
end
begin
   id 7
   name chest2
   direction 0.068191 0.991126 0.114101
   length  14.811435
   axis 0.000 0.000 0.000 XYZ
end
begin
   id 8
   name leftcollar
   direction 1.000000 0.000000 0.000000
   length 4.830000
   axis 0.00000 0.00000 0.00000 XYZ
   dof rx ry rz
   limits (-180.0 180.0)
      (-180.0 180.0)
      (-180.0 180.0)
end
begin
   id 9
   name leftuparm
   direction 0.000000 -1.000000 0.000000
   length 12.160000
   axis 0.00000 0.00000 0.00000 XYZ
   dof rx ry rz
   limits (-180.0 180.0)
      (-180.0 180.0)
      (-180.0 180.0)
end
begin
   id 10
   name leftlowarm
   direction 0.000000 -1.000000 0.000000
   length 9.700000
   axis 0.00000 0.00000 0.00000 XYZ
   dof rx ry rz
   limits (-180.0 180.0)
      (-180.0 180.0)
      (-180.0 180.0)
end
begin
   id 11
   name lefthand
   direction 1.000000 0.000000 0.000000
   length 0.000000
   axis 0.00000 0.00000 0.00000 XYZ
   dof rx ry rz
   limits (-180.0 180.0)
      (-180.0 180.0)
      (-180.0 180.0)
end
begin
   id 12
   name chest3
   direction -0.068191 0.991126 0.114101
   length  14.811435
   axis 0.000 0.000 0.000 XYZ
end
begin
   id 13
   name rightcollar
   direction -1.000000 0.000000 0.000000
   length 5.390000
   axis 0.00000 0.00000 0.00000 XYZ
   dof rx ry rz
   limits (-180.0 180.0)
      (-180.0 180.0)
      (-180.0 180.0)
end
begin
   id 14
   name rightuparm
   direction 0.000000 -1.000000 0.000000
   length 12.480000
   axis 0.00000 0.00000 0.00000 XYZ
   dof rx ry rz
   limits (-180.0 180.0)
      (-180.0 180.0)
      (-180.0 180.0)
end
begin
   id 15
   name rightlowarm
   direction 0.000000 -1.000000 0.000000
   length 10.060000
   axis 0.00000 0.00000 0.00000 XYZ
   dof rx ry rz
   limits (-180.0 180.0)
      (-180.0 180.0)
      (-180.0 180.0)
end
begin
   id 16
   name righthand
   direction 1.000000 0.000000 0.000000
   length 0.000000
   axis 0.00000 0.00000 0.00000 XYZ
   dof rx ry rz
   limits (-180.0 180.0)
      (-180.0 180.0)
      (-180.0 180.0)
end
begin
   id 17
   name hips2
   direction 1.000000 0.000000 0.000000
   length  3.240000
   axis 0.000 0.000 0.000 XYZ
end
begin
   id 18
   name leftupleg
   direction 0.000000 -1.000000 0.000000
   length 17.290001
   axis 0.00000 0.00000 0.00000 XYZ
   dof rx ry rz
   limits (-180.0 180.0)
      (-180.0 180.0)
      (-180.0 180.0)
end
begin
   id 19
   name leftlowleg
   direction 0.000000 -1.000000 0.000000
   length 16.400000
   axis 0.00000 0.00000 0.00000 XYZ
   dof rx ry rz
   limits (-180.0 180.0)
      (-180.0 180.0)
      (-180.0 180.0)
end
begin
   id 20
   name leftfoot
   direction 1.000000 0.000000 0.000000
   length 0.000000
   axis 0.00000 0.00000 0.00000 XYZ
   dof rx ry rz
   limits (-180.0 180.0)
      (-180.0 180.0)
      (-180.0 180.0)
end
begin
   id 21
   name hips3
   direction -1.000000 0.000000 0.000000
   length  3.240000
   axis 0.000 0.000 0.000 XYZ
end
begin
   id 22
   name rightupleg
   direction 0.000000 -1.000000 0.000000
   length 17.680000
   axis 0.00000 0.00000 0.00000 XYZ
   dof rx ry rz
   limits (-180.0 180.0)
      (-180.0 180.0)
      (-180.0 180.0)
end
begin
   id 23
   name rightlowleg
   direction 0.000000 -1.000000 0.000000
   length 15.510000
   axis 0.00000 0.00000 0.00000 XYZ
   dof rx ry rz
   limits (-180.0 180.0)
      (-180.0 180.0)
      (-180.0 180.0)
end
begin
   id 24
   name rightfoot
   direction 1.000000 0.000000 0.000000
   length 0.000000
   axis 0.00000 0.00000 0.00000 XYZ
   dof rx ry rz
   limits (-180.0 180.0)
      (-180.0 180.0)
      (-180.0 180.0)
end
:hierarchy
begin
   root hips
   hips hips1 hips2 hips3
   hips1 chest
   chest chest1 chest2 chest3
   chest1 neck
   neck head
   chest2 leftcollar
   leftcollar leftuparm
   leftuparm leftlowarm
   leftlowarm lefthand
   chest3 rightcollar
   rightcollar rightuparm
   rightuparm rightlowarm
   rightlowarm righthand
   hips2 leftupleg
   leftupleg leftlowleg
   leftlowleg leftfoot
   hips3 rightupleg
   rightupleg rightlowleg
   rightlowleg rightfoot
end

:FULLY-SPECIFIED
:DEGREES
1
root -1.244205 36.710186 7.591899 0.958161 4.190043 -18.282991
hips 0.000000 0.000000 0.000000
chest 15.511776 -2.804996 -0.725314
neck 48.559605 0.000000 0.014236
head -38.332661 1.462782 -1.753684
leftcollar 0.000000 15.958783 0.921166
leftuparm -10.319685 -15.040003 63.091194
leftlowarm -27.769176 -15.856658 8.187016
lefthand 2.601753 -0.217064 -5.543770
rightcollar 0.000000 -8.470076 2.895008
rightuparm 6.496142 9.551583 -57.854118
rightlowarm -26.983490 11.338276 -5.716377
righthand -6.387745 -1.258509 5.876069
leftupleg 23.412262 -5.325913 12.099395
leftlowleg -6.933442 -6.276054 -1.363996
leftfoot -1.877641 4.455667 -6.275022
rightupleg 20.698696 3.189690 -8.377244
rightlowleg 3.445840 -6.717122 2.046032
rightfoot -8.162314 0.687809 9.000264
2
root -4.232432 36.723934 9.596100 -7.051147 1.678117 -7.711937
hips 0.000000 0.000000 0.000000
chest 31.863499 -19.017111 6.490547
neck 24.864561 0.000000 3.523423
head -37.755890 0.716262 -9.655441
leftcollar 0.000000 8.905169 2.417470
leftuparm -0.142105 -20.082863 20.546387
leftlowarm -85.714821 -3.601602 39.974899
lefthand 7.512364 1.456288 7.419460
rightcollar 0.000000 -6.022165 13.528329
rightuparm 25.560759 17.452280 -32.320354
rightlowarm -98.920364 -1.395671 -8.820741
righthand -17.407240 -0.480175 -13.615075
leftupleg 14.944407 -3.319965 12.241910
leftlowleg 111.359749 4.283511 0.067039
leftfoot -5.904217 4.003397 -6.572122
rightupleg -14.656886 1.983091 7.537028
rightlowleg 44.311165 -19.948593 -7.886206
rightfoot -20.174290 2.559881 8.658565
3
root -4.445044 36.800747 14.551462 -6.827135 -4.823227 -8.373804
hips 0.000000 0.000000 0.000000
chest 32.398888 -8.898182 8.403425
neck 24.425745 0.000000 2.935388
head -37.273033 -0.507008 -8.464486
leftcollar 0.000000 9.563932 1.581217
leftuparm 9.237283 -25.766706 18.342815
leftlowarm -81.134499 -6.838763 37.358421
lefthand 7.320636 1.225508 10.852700
rightcollar 0.000000 -5.642820 13.000168
rightuparm 10.658360 17.023422 -31.956764
rightlowarm -100.108139 -1.131761 -6.322413
righthand -17.295084 0.212848 -17.038082
leftupleg 2.335430 -0.513495 12.392471
leftlowleg 113.682404 6.119606 0.514013
leftfoot -2.004490 4.441760 -6.284855
rightupleg -7.475963 1.326106 10.002107
rightlowleg 47.496601 -12.468134 -10.737173
rightfoot -26.759705 3.541797 8.307690
4
root -4.563578 37.228432 19.681864 -4.969277 -10.633323 -8.274855
hips 0.000000 0.000000 0.000000
chest 32.692898 1.516816 9.171048
neck 24.251766 0.000000 2.459911
head -36.799072 -2.240589 -6.750090
leftcollar 0.000000 10.501280 1.224653
leftuparm 18.743040 -30.726402 17.333708
leftlowarm -79.909843 -7.142373 34.942238
lefthand 4.983277 1.242160 12.698921
rightcollar 0.000000 -5.637848 10.626506
rightuparm -1.667879 14.275926 -31.007023
rightlowarm -103.304497 -0.915997 -3.867640
righthand -17.683100 0.394750 -19.067909
leftupleg -9.290141 1.833685 11.068383
leftlowleg 110.779236 8.164953 1.573704
leftfoot -1.540149 4.492598 -6.248700
rightupleg 1.600585 -0.231321 8.219426
rightlowleg 44.312332 -5.611466 -11.681806
rightfoot -28.646574 3.814767 8.186609
5
root -4.591031 38.163731 25.059671 -1.770148 -15.511734 -7.326201
hips 0.000000 0.000000 0.000000
chest 32.642792 12.089504 9.278005
neck 24.760178 0.000000 1.883302
head -36.505875 -4.649238 -4.370449
leftcollar 0.000000 10.966726 1.209283
leftuparm 27.209719 -34.706692 17.728214
leftlowarm -81.635757 -5.609381 33.615891
lefthand 3.332879 1.305549 12.966639
rightcollar 0.000000 -5.974234 6.824055
rightuparm -9.637574 7.874823 -28.566376
rightlowarm -106.768204 -1.302078 -4.312897
righthand -18.556364 -0.268887 -16.821142
leftupleg -17.538338 2.689764 8.446002
leftlowleg 100.168449 11.185024 3.860595
leftfoot -3.030640 4.328365 -6.363342
rightupleg 11.365530 -0.475586 2.364781
rightlowleg 36.421780 -0.424247 -10.507990
rightfoot -23.932024 3.125378 8.472136
6
root -4.589555 39.421619 30.665157 1.423513 -19.033495 -5.890598
hips 0.000000 0.000000 0.000000
chest 32.505592 21.470383 9.546069
neck 26.687828 0.000000 0.886219
head -37.523666 -6.989853 -1.376929
leftcollar 0.000000 10.782716 1.108406
leftuparm 33.939899 -36.717308 19.460810
leftlowarm -84.117798 -3.660786 31.787947
lefthand 1.677955 1.287216 12.909533
rightcollar 0.000000 -5.935549 2.689691
rightuparm -13.427048 0.280536 -25.997671
rightlowarm -109.445137 -2.168245 -6.116810
righthand -19.598663 -0.687317 -13.037676
leftupleg -21.646498 2.316655 5.815584
leftlowleg 83.423538 15.550130 7.158624
leftfoot -5.238232 4.079657 -6.525193
rightupleg 20.116385 1.656309 -4.511836
rightlowleg 27.382145 2.246042 -7.819732
rightfoot -12.979936 1.447326 8.910460
7
root -4.648480 40.630268 36.339645 3.478408 -20.800112 -4.167094
hips 0.000000 0.000000 0.000000
chest 32.019081 28.632076 10.267331
neck 29.567455 0.000000 -0.358614
head -39.670975 -8.543114 1.939323
leftcollar 0.000000 10.308463 1.131824
leftuparm 38.868008 -36.757542 21.914663
leftlowarm -86.669769 -1.914633 29.863213
lefthand -0.197181 1.297346 12.907054
rightcollar 0.000000 -5.062690 -1.070552
rightuparm -14.056401 -5.953767 -24.843925
rightlowarm -111.448799 -2.505594 -6.349377
righthand -20.423296 -0.878629 -11.718843
leftupleg -22.839725 1.744082 4.133206
leftlowleg 62.981106 20.518621 8.246956
leftfoot -6.841628 3.895104 -6.636704
rightupleg 26.419680 4.610639 -9.190398
rightlowleg 21.327103 1.957775 -5.293310
rightfoot -1.011580 -0.447247 9.015304
8
root -4.795610 41.392189 41.943508 4.057243 -20.817427 -2.357394
hips 0.000000 0.000000 0.000000
chest 30.751715 33.418560 10.992213
neck 32.027763 0.000000 -1.425136
head -41.684540 -9.145060 4.973158
leftcollar 0.000000 10.426886 1.268291
leftuparm 41.843990 -36.104267 24.850193
leftlowarm -89.505890 -0.273274 28.941359
lefthand -1.436592 1.349145 12.948283
rightcollar 0.000000 -3.870795 -3.923675
rightuparm -12.583515 -9.903410 -25.041531
rightlowarm -112.764526 -2.336287 -5.548502
righthand -20.590252 -1.079695 -12.340307
leftupleg -22.586388 1.503785 3.609937
leftlowleg 40.897701 22.849516 5.041134
leftfoot -7.903645 3.771146 -6.707707
rightupleg 29.940277 6.221673 -10.656507
rightlowleg 21.919891 -0.656719 -4.973240
rightfoot 5.760315 -1.515736 8.899155
9
root -5.002357 41.488827 47.464306 3.673627 -19.322437 -0.953655
hips 0.000000 0.000000 0.000000
chest 28.846746 35.805195 10.931877
neck 33.285309 0.000000 -1.941974
head -42.830467 -9.311976 7.177906
leftcollar 0.000000 11.592159 0.586147
leftuparm 42.394676 -35.310299 28.649765
leftlowarm -92.249886 1.242237 28.890842
lefthand -1.955730 1.436330 13.064034
rightcollar 0.000000 -3.153710 -5.812703
rightuparm -9.918466 -11.053969 -25.406565
rightlowarm -112.918221 -2.251998 -5.309876
righthand -20.308313 -1.168949 -13.042398
leftupleg -21.638191 1.353022 3.406403
leftlowleg 21.339386 20.865274 0.999817
leftfoot -8.891657 3.654616 -6.771636
rightupleg 31.479034 6.022093 -9.722720
rightlowleg 29.948765 -3.553093 -7.898821
rightfoot 6.947467 -1.701193 8.865846
